<?xml version="1.0" encoding="utf-8"?>
<!-- Generator: Adobe Illustrator 16.0.0, SVG Export Plug-In . SVG Version: 6.00 Build 0)  -->
<!DOCTYPE svg PUBLIC "-//W3C//DTD SVG 1.1//EN" "http://www.w3.org/Graphics/SVG/1.1/DTD/svg11.dtd">
<svg version="1.1" id="Capa_1" xmlns="http://www.w3.org/2000/svg" xmlns:xlink="http://www.w3.org/1999/xlink" x="0px" y="0px"
	 width="796px" height="898px" viewBox="202 -49 796 898" enable-background="new 202 -49 796 898" xml:space="preserve">
<g>
	<g>
		<g>
			<path fill="#00FFFF" d="M810.938,92.128c32.321-0.002,56.041-32.5,43.419-64.592l-43.419-76.034L767.52,27.536
				C754.954,58.585,777.923,92.125,810.938,92.128z"/>
		</g>
	</g>
	<g>
		<g>
			<path fill="#FF7F00" d="M623.438,848.498v-91.119c60.353-63.979,93.752-147.016,93.75-235.345c0.002-4.861,0-359.596,0-359.596
				l-93.75,0l0.002-46.877h-46.879l0.002,46.877l-93.75,0c0,0,0,340.397,0,359.597c-0.002,88.328,33.396,171.363,93.75,235.343
				l0,91.12H623.438z M576.564,490.563h46.875v140.626h-46.875V490.563z"/>
		</g>
	</g>
	<g>
		<g>
			<path d="M810.938,256.189c25.892-0.001,46.876-20.985,46.875-46.875l0.001-83.353C843.969,134.039,828.091,139,810.939,139
				c-17.153,0-33.032-4.963-46.874-13.037v83.351C764.062,235.204,785.049,256.191,810.938,256.189z"/>
		</g>
	</g>
	<g>
		<g>
			<path fill="#00FFFF" d="M389.063,92.128c32.321-0.001,56.041-32.5,43.419-64.592l-43.419-76.034l-43.418,76.034
				C333.081,58.587,356.048,92.126,389.063,92.128z"/>
		</g>
	</g>
	<g>
		<g>
			<path d="M389.065,256.189c25.888,0.001,46.875-20.985,46.873-46.874v-83.35c-13.845,8.075-29.724,13.037-46.874,13.037
				c-17.15-0.001-33.031-4.963-46.876-13.04l0.003,83.353C342.188,235.205,363.174,256.19,389.065,256.189z"/>
		</g>
	</g>
	<g>
		<g>
			<path fill="#873700" d="M951.551,317.561l0.013,126.129h46.874l-0.021-281.251H904.69l-0.003,46.875
				c0,51.705-42.045,93.75-93.75,93.75c-17.152,0.001-33.031-4.962-46.873-13.036l-0.003,121.275L951.551,317.561z"/>
		</g>
	</g>
	<g>
		<g>
			<path fill="#873700" d="M248.438,443.689l0-126.137l187.501,93.75l-0.003-121.275c-13.843,8.074-29.723,13.038-46.873,13.036
				c-51.705,0.001-93.75-42.044-93.75-93.75v-46.875l-93.751,0.001l0.001,281.25H248.438z"/>
		</g>
	</g>
</g>
</svg>
