<?xml version="1.0" encoding="utf-8"?>
<!-- Generator: Adobe Illustrator 16.0.0, SVG Export Plug-In . SVG Version: 6.00 Build 0)  -->
<!DOCTYPE svg PUBLIC "-//W3C//DTD SVG 1.1//EN" "http://www.w3.org/Graphics/SVG/1.1/DTD/svg11.dtd">
<svg version="1.1" id="Layer_1" xmlns="http://www.w3.org/2000/svg" xmlns:xlink="http://www.w3.org/1999/xlink" x="0px" y="0px"
	 width="800px" height="800px" viewBox="200 0 800 800" enable-background="new 200 0 800 800" xml:space="preserve">
<g>
	<g>
		<path d="M996.15,265.19c-13.521-36.24-55.25-66.9-124.011-91.1c-31.84-11.21-61.92-18.42-78.88-22.05
			c-15.67-34.13-40-63.39-71.02-85.21C686.32,41.56,644.05,28.2,600,28.2s-86.32,13.36-122.24,38.63
			c-31.03,21.82-55.35,51.08-71.03,85.21c-16.95,3.63-47.03,10.84-78.87,22.05c-68.76,24.21-110.49,54.86-124.01,91.1
			c-5.14,13.8-7.7,35.41,9.37,59.99c30.44,43.84,108.83,72.41,152.85,85.54c73.24,21.84,156.32,33.87,233.93,33.87
			c77.62,0,160.7-12.03,233.93-33.87c44.021-13.13,122.42-41.7,152.851-85.54C1003.85,300.6,1001.3,278.99,996.15,265.19z
			 M600,80.37c61.75,0,118.3,36.1,144.77,91.12c-13.76,14.31-53,43.32-144.77,43.32c-64.58,0-102.56-14.42-123.05-26.51
			c-10.39-6.13-17.32-12.18-21.72-16.82C481.7,116.47,538.25,80.37,600,80.37z M943.92,295.43c-18.1,26.08-76.39,50.83-124.9,65.3
			C751.48,380.87,671.65,392.42,600,392.42c-155.77,0-312.79-52.13-343.93-96.99c-5.08-7.33-3.86-10.6-3.34-12
			c7.5-20.09,40.97-41.93,91.84-59.92c27.17-9.6,53.5-16.11,69.57-19.67c6.73,7.69,16.64,16.94,30.81,26.02
			c38.45,24.63,90.61,37.12,155.05,37.12c64.43,0,116.6-12.49,155.04-37.12c14.18-9.08,24.08-18.33,30.81-26.02
			c16.08,3.56,42.4,10.07,69.57,19.67c50.87,17.99,84.35,39.83,91.85,59.92C947.79,284.82,949.01,288.1,943.92,295.43z"/>
		<path fill="#8DDFFF" d="M744.77,171.49c-13.76,14.31-53,43.32-144.77,43.32c-64.58,0-102.56-14.42-123.05-26.51
			c-10.39-6.13-17.32-12.18-21.72-16.82C481.7,116.47,538.25,80.37,600,80.37S718.3,116.47,744.77,171.49z"/>
		<path fill="#006272" d="M943.92,295.43c-18.1,26.08-76.39,50.83-124.9,65.3C751.48,380.87,671.65,392.42,600,392.42
			c-155.77,0-312.79-52.13-343.93-96.99c-5.08-7.33-3.86-10.6-3.34-12c7.5-20.09,40.97-41.93,91.84-59.92
			c27.17-9.6,53.5-16.11,69.57-19.67c6.73,7.69,16.64,16.94,30.81,26.02c38.45,24.63,90.61,37.12,155.05,37.12
			c64.43,0,116.6-12.49,155.04-37.12c14.18-9.08,24.08-18.33,30.81-26.02c16.08,3.56,42.4,10.07,69.57,19.67
			c50.87,17.99,84.35,39.83,91.85,59.92C947.79,284.82,949.01,288.1,943.92,295.43z"/>
	</g>
</g>
<g>
	<g>
		<circle fill="#00F3FF" cx="401.791" cy="291.456" r="25.409"/>
	</g>
</g>
<g>
	<g>
		<circle fill="#00F3FF" cx="798.208" cy="291.456" r="25.409"/>
	</g>
</g>
<g>
	<g>
		<circle fill="#00F3FF" cx="600" cy="332.114" r="25.409"/>
	</g>
</g>
<g>
	<g>
		<rect x="573.914" y="514.342" width="52.169" height="168.82"/>
	</g>
</g>
<g>
	<g>
		<rect x="704.635" y="514.342" width="52.168" height="257.457"/>
	</g>
</g>
<g>
	<g>
		<rect x="443.195" y="514.342" width="52.169" height="257.457"/>
	</g>
</g>
</svg>
