<?xml version="1.0" encoding="iso-8859-1"?>
<!-- Generator: Adobe Illustrator 18.1.1, SVG Export Plug-In . SVG Version: 6.00 Build 0)  -->
<svg version="1.1" id="Capa_1" xmlns="http://www.w3.org/2000/svg" xmlns:xlink="http://www.w3.org/1999/xlink" x="0px" y="0px"
	 viewBox="0 0 612.001 612.001" style="enable-background:new 0 0 612.001 612.001;" xml:space="preserve">
<g>
	<path class="a" d="M64.601,236.822c0,157.434,128.185,375.178,241.4,375.178c106.581,0,241.399-217.744,241.399-375.178S439.322,0,306,0
		S64.601,79.388,64.601,236.822z M368.721,353.237c29.475-29.475,70.598-40.195,108.552-32.173
		c8.021,37.954-2.698,79.077-32.173,108.552c-29.475,29.475-70.598,40.195-108.552,32.173
		C328.526,423.834,339.246,382.711,368.721,353.237z M134.727,321.063c37.954-8.021,79.077,2.698,108.552,32.173
		c29.475,29.475,40.195,70.598,32.173,108.552c-37.954,8.021-79.077-2.698-108.552-32.173
		C137.425,400.139,126.706,359.017,134.727,321.063z"/>
</g>
<defs xmlns="http://www.w3.org/2000/svg"><style>.a{fill:url(#a);}</style><linearGradient id="a" x1="0.302" y1="0.068" x2="0.811" y2="0.939" gradientUnits="objectBoundingBox"><stop offset="0" stop-color="#b02e0c"/><stop offset="1" stop-color="#eb4511"/></linearGradient></defs>
</svg>
