<?xml version="1.0" encoding="utf-8"?>
<!-- Generator: Adobe Illustrator 16.0.0, SVG Export Plug-In . SVG Version: 6.00 Build 0)  -->
<!DOCTYPE svg PUBLIC "-//W3C//DTD SVG 1.1//EN" "http://www.w3.org/Graphics/SVG/1.1/DTD/svg11.dtd">
<svg version="1.1" id="Capa_1" xmlns="http://www.w3.org/2000/svg" xmlns:xlink="http://www.w3.org/1999/xlink" x="0px" y="0px"
	 width="361.309px" height="361.309px" viewBox="421.309 0 361.309 361.309" enable-background="new 421.309 0 361.309 361.309"
	 xml:space="preserve">
<path fill="#6EDCDD" d="M94.96,146.812c-0.3-4.494,0.946-18.344-3.883-13.857c-11.532,10.717-22.584,24.722-22.584,24.722
	c-2.97,2.821-5.4,8.48-5.4,12.579v104.281c0,4.096,2.432,5.141,5.4,2.314l43.839-45.805c2.851-2.879,0.512-5.724-0.39-7.542
	C103.089,205.607,97.039,177.782,94.96,146.812z"/>
<path fill="#6EDCDD" d="M292.815,157.676c0,0-11.051-14.005-22.584-24.722c-4.825-4.486-3.582,9.364-3.881,13.857
	c-2.082,30.97-8.129,58.796-16.983,76.692c-0.9,1.819-3.238,4.664-0.39,7.542l43.838,45.805c2.972,2.825,5.4,1.78,5.4-2.315V170.255
	C298.218,166.157,295.786,160.498,292.815,157.676z"/>
<path fill="#186465" d="M180.71,236.783c43.977,0,54.656-10.348,54.656-10.348c12.748-21.398,20.565-62.268,20.565-105.768
	C255.933,54.682,197.978,0,180.55,0c-17.355,0-75.384,54.682-75.384,120.669c0,42.211,7.821,84.368,20.57,105.767
	C125.738,226.436,135.775,236.783,180.71,236.783z M179.747,57.526c21.216,0,38.417,17.199,38.417,38.413
	c0,21.218-17.2,38.416-38.417,38.416c-21.215,0-38.411-17.198-38.411-38.416C141.336,74.725,158.532,57.526,179.747,57.526z"/>
<path fill="#FF5200" d="M234.536,240.932c-1.857-7.203-2.916,6.584-54.354,6.664c-51.439-0.08-52.495-13.867-54.354-6.664
	c-0.364,1.405-2.108,16.784-2.649,22.344c-0.688,7.141-2.158,15.923-2.158,25.168c0,21.79,12.241,39.845,18.209,39.845
	c6.377,0,12.418-15.99,12.418-15.99c0.756-1.24,1.826-1.151,2.378,0.189c0,0,13.96,48.821,25.71,48.821
	c0.149,0,0.301-0.041,0.447-0.057c0.147,0.016,0.299,0.057,0.445,0.057c11.752,0,25.71-48.821,25.71-48.821
	c0.554-1.343,1.624-1.431,2.379-0.189c0,0,6.042,15.99,12.416,15.99c5.97,0,18.213-18.055,18.213-39.845
	c0-9.245-1.473-18.027-2.16-25.168C236.646,257.716,234.901,242.337,234.536,240.932z"/>
<g>
	
		<linearGradient id="SVGID_1_" gradientUnits="userSpaceOnUse" x1="-72.2654" y1="669.5254" x2="-25.8591" y2="669.5254" gradientTransform="matrix(-0.5382 -0.7071 0.5382 -0.7071 214.0637 768.8458)">
		<stop  offset="0" style="stop-color:#BFA000;stop-opacity:0"/>
		<stop  offset="1" style="stop-color:#FFB815"/>
	</linearGradient>
	<rect x="598.74" y="300.021" fill="url(#SVGID_1_)" width="4.146" height="60.18"/>
	
		<linearGradient id="SVGID_2_" gradientUnits="userSpaceOnUse" x1="-13.865" y1="888.7324" x2="32.5393" y2="888.7324" gradientTransform="matrix(0.1194 -0.8806 0.8806 -0.1194 -266.6606 382.482)">
		<stop  offset="0" style="stop-color:#BFA000;stop-opacity:0"/>
		<stop  offset="1" style="stop-color:#FFB815"/>
	</linearGradient>
	<polygon fill="url(#SVGID_2_)" points="539.787,248.31 497.235,290.861 494.302,287.931 536.855,245.377 	"/>
	
		<linearGradient id="SVGID_3_" gradientUnits="userSpaceOnUse" x1="325.7854" y1="444.6865" x2="372.1887" y2="444.6865" gradientTransform="matrix(0.7071 -0.5382 0.7071 0.5382 -56.1786 57.353)">
		<stop  offset="0" style="stop-color:#BFA000;stop-opacity:0"/>
		<stop  offset="1" style="stop-color:#FFB815"/>
	</linearGradient>
	<rect x="474.945" y="106.787" fill="url(#SVGID_3_)" width="60.178" height="4.146"/>
	
		<linearGradient id="SVGID_4_" gradientUnits="userSpaceOnUse" x1="-73.7834" y1="12.7725" x2="-27.3792" y2="12.7725" gradientTransform="matrix(-0.7071 0.5382 -0.7071 -0.5382 672.1586 142.9566)">
		<stop  offset="0" style="stop-color:#BFA000;stop-opacity:0"/>
		<stop  offset="1" style="stop-color:#FFB815"/>
	</linearGradient>
	<rect x="668.804" y="106.787" fill="url(#SVGID_4_)" width="60.18" height="4.146"/>
	
		<linearGradient id="SVGID_5_" gradientUnits="userSpaceOnUse" x1="595.1116" y1="-52.1489" x2="641.5178" y2="-52.1489" gradientTransform="matrix(0.8806 0.1194 0.1194 0.8806 5.1824 -5.1823)">
		<stop  offset="0" style="stop-color:#BFA000;stop-opacity:0"/>
		<stop  offset="1" style="stop-color:#FFB815"/>
	</linearGradient>
	<polygon fill="url(#SVGID_5_)" points="563.234,45.484 520.68,2.932 523.613,0 566.165,42.553 	"/>
	
		<linearGradient id="SVGID_6_" gradientUnits="userSpaceOnUse" x1="329.4856" y1="-367.9971" x2="375.8889" y2="-367.9971" gradientTransform="matrix(-0.8806 -0.1194 -0.1194 -0.8806 950.8127 -13.8079)">
		<stop  offset="0" style="stop-color:#BFA000;stop-opacity:0"/>
		<stop  offset="1" style="stop-color:#FFB815"/>
	</linearGradient>
	<polygon fill="url(#SVGID_6_)" points="664.388,245.377 706.94,287.931 704.01,290.861 661.456,248.31 	"/>
	
		<linearGradient id="SVGID_7_" gradientUnits="userSpaceOnUse" x1="77.2307" y1="28.7705" x2="123.6331" y2="28.7705" gradientTransform="matrix(-0.8806 -0.1194 -0.1194 -0.8806 813.5085 255.236)">
		<stop  offset="0" style="stop-color:#BFA000;stop-opacity:0"/>
		<stop  offset="1" style="stop-color:#FFB815"/>
	</linearGradient>
	<polygon fill="url(#SVGID_7_)" points="701.824,195.165 744.377,237.718 741.447,240.65 698.894,198.098 	"/>
	
		<linearGradient id="SVGID_8_" gradientUnits="userSpaceOnUse" x1="871.2356" y1="374.8613" x2="917.6409" y2="374.8613" gradientTransform="matrix(0.1194 -0.8806 0.8806 -0.1194 45.3785 1050.2915)">
		<stop  offset="0" style="stop-color:#BFA000;stop-opacity:0"/>
		<stop  offset="1" style="stop-color:#FFB815"/>
	</linearGradient>
	<polygon fill="url(#SVGID_8_)" points="505.034,198.098 462.481,240.65 459.549,237.718 502.102,195.166 	"/>
	
		<linearGradient id="SVGID_9_" gradientUnits="userSpaceOnUse" x1="318.3577" y1="-455.4746" x2="364.762" y2="-455.4746" gradientTransform="matrix(-0.1194 0.8806 -0.8806 0.1194 288.2363 -223.627)">
		<stop  offset="0" style="stop-color:#BFA000;stop-opacity:0"/>
		<stop  offset="1" style="stop-color:#FFB815"/>
	</linearGradient>
	<polygon fill="url(#SVGID_9_)" points="625.779,42.553 668.331,0 671.264,2.931 628.711,45.484 	"/>
</g>
</svg>
